<svg xmlns="http://www.w3.org/2000/svg" xmlns:xlink="http://www.w3.org/1999/xlink" width="80" zoomAndPan="magnify" viewBox="0 0 60 60" height="80" preserveAspectRatio="xMidYMid meet" version="1.0"><defs><filter x="0%" y="0%" width="100%" height="100%" id="3754197c28"><feColorMatrix values="0 0 0 0 1 0 0 0 0 1 0 0 0 0 1 0 0 0 1 0" color-interpolation-filters="sRGB"/></filter><g/><mask id="fa8795e4af"><g filter="url(#3754197c28)"><rect x="-6" width="72" fill="#000000" y="-6" height="72" fill-opacity="0.35"/></g></mask><clipPath id="306cc32bd1"><path d="M 0.800781 0.402344 L 39.199219 0.402344 L 39.199219 31.597656 L 0.800781 31.597656 Z M 0.800781 0.402344 " clip-rule="nonzero"/></clipPath><clipPath id="d99e96c971"><rect x="0" width="40" y="0" height="32"/></clipPath></defs><g mask="url(#fa8795e4af)"><g transform="matrix(1, 0, 0, 1, 10, 14)"><g clip-path="url(#d99e96c971)"><g clip-path="url(#306cc32bd1)"><path fill="#007aff" d="M 0.800781 0.402344 L 39.183594 0.402344 L 39.183594 31.597656 L 0.800781 31.597656 Z M 0.800781 0.402344 " fill-opacity="1" fill-rule="nonzero"/></g></g></g></g><g fill="#ce9178" fill-opacity="1"><g transform="translate(-1.5203, 36.700681)"><g><path d="M 7.421875 -15.359375 L 9.46875 -15.359375 L 9.46875 -12.203125 L 9.234375 -9.046875 L 7.671875 -9.046875 L 7.421875 -12.203125 Z M 3.15625 -12.203125 L 3.15625 -15.359375 L 5.1875 -15.359375 L 5.1875 -12.203125 L 4.96875 -9.046875 L 3.40625 -9.046875 Z M 3.15625 -12.203125 "/></g></g></g><g fill="#ce9178" fill-opacity="1"><g transform="translate(11.087779, 36.700681)"><g><path d="M 4.5 -1.65625 C 4.5 -2.207031 4.660156 -2.644531 4.984375 -2.96875 C 5.316406 -3.300781 5.757812 -3.46875 6.3125 -3.46875 C 6.851562 -3.46875 7.289062 -3.300781 7.625 -2.96875 C 7.957031 -2.644531 8.125 -2.207031 8.125 -1.65625 C 8.125 -1.09375 7.957031 -0.640625 7.625 -0.296875 C 7.289062 0.0351562 6.851562 0.203125 6.3125 0.203125 C 5.757812 0.203125 5.316406 0.0351562 4.984375 -0.296875 C 4.660156 -0.640625 4.5 -1.09375 4.5 -1.65625 Z M 4.5 -1.65625 "/></g></g></g><g fill="#ce9178" fill-opacity="1"><g transform="translate(23.695858, 36.700681)"><g><path d="M 4.5 -1.65625 C 4.5 -2.207031 4.660156 -2.644531 4.984375 -2.96875 C 5.316406 -3.300781 5.757812 -3.46875 6.3125 -3.46875 C 6.851562 -3.46875 7.289062 -3.300781 7.625 -2.96875 C 7.957031 -2.644531 8.125 -2.207031 8.125 -1.65625 C 8.125 -1.09375 7.957031 -0.640625 7.625 -0.296875 C 7.289062 0.0351562 6.851562 0.203125 6.3125 0.203125 C 5.757812 0.203125 5.316406 0.0351562 4.984375 -0.296875 C 4.660156 -0.640625 4.5 -1.09375 4.5 -1.65625 Z M 4.5 -1.65625 "/></g></g></g><g fill="#ce9178" fill-opacity="1"><g transform="translate(36.303936, 36.700681)"><g><path d="M 4.5 -1.65625 C 4.5 -2.207031 4.660156 -2.644531 4.984375 -2.96875 C 5.316406 -3.300781 5.757812 -3.46875 6.3125 -3.46875 C 6.851562 -3.46875 7.289062 -3.300781 7.625 -2.96875 C 7.957031 -2.644531 8.125 -2.207031 8.125 -1.65625 C 8.125 -1.09375 7.957031 -0.640625 7.625 -0.296875 C 7.289062 0.0351562 6.851562 0.203125 6.3125 0.203125 C 5.757812 0.203125 5.316406 0.0351562 4.984375 -0.296875 C 4.660156 -0.640625 4.5 -1.09375 4.5 -1.65625 Z M 4.5 -1.65625 "/></g></g></g><g fill="#ce9178" fill-opacity="1"><g transform="translate(48.912015, 36.700681)"><g><path d="M 7.421875 -15.359375 L 9.46875 -15.359375 L 9.46875 -12.203125 L 9.234375 -9.046875 L 7.671875 -9.046875 L 7.421875 -12.203125 Z M 3.15625 -12.203125 L 3.15625 -15.359375 L 5.1875 -15.359375 L 5.1875 -12.203125 L 4.96875 -9.046875 L 3.40625 -9.046875 Z M 3.15625 -12.203125 "/></g></g></g></svg>